<?xml version="1.0" standalone="no"?>
<!DOCTYPE svg PUBLIC "-//W3C//DTD SVG 20010904//EN"
 "http://www.w3.org/TR/2001/REC-SVG-20010904/DTD/svg10.dtd">
<svg version="1.0" xmlns="http://www.w3.org/2000/svg"
 width="1254.000000pt" height="1254.000000pt" viewBox="0 0 1254.000000 1254.000000"
 preserveAspectRatio="xMidYMid meet">

<g transform="translate(0.000000,1254.000000) scale(0.100000,-0.100000)"
fill="#000000" stroke="none">
<path d="M6125 10714 c-313 -32 -528 -93 -774 -220 -280 -145 -534 -373 -700
-629 l-52 -80 -157 -52 c-86 -29 -178 -56 -205 -59 l-48 -7 4 -981 c3 -685 8
-1008 16 -1071 90 -675 350 -1139 853 -1521 231 -176 641 -415 1071 -625 l139
-67 66 29 c95 43 407 206 607 317 302 168 522 316 697 470 316 276 535 636
643 1054 77 304 85 438 85 1515 l0 881 -52 7 c-29 4 -127 31 -218 61 l-166 54
-61 93 c-277 423 -769 731 -1296 812 -101 15 -374 27 -452 19z m185 -63 c26
-34 38 -41 78 -46 106 -14 260 -48 341 -77 316 -111 601 -318 822 -599 22 -27
37 -49 34 -49 -4 0 -27 5 -53 12 -36 9 -58 24 -99 68 -49 53 -58 58 -135 78
-99 26 -285 67 -347 77 l-44 7 27 -43 c15 -24 47 -85 72 -135 l46 -92 51 -6
c175 -23 600 -136 927 -248 l185 -63 3 -760 c3 -808 -5 -1064 -38 -1262 -79
-460 -246 -791 -554 -1098 -232 -231 -472 -388 -1105 -720 l-243 -128 -47 22
c-77 38 -529 280 -641 344 -437 250 -718 489 -912 779 -124 183 -233 456 -282
703 -50 256 -51 280 -51 1230 l0 890 150 53 c294 104 572 183 835 236 l155 32
20 40 c11 21 42 79 68 127 27 49 47 90 45 93 -7 6 -152 -22 -318 -63 l-145
-35 -61 -64 c-34 -35 -70 -64 -80 -64 -11 0 -30 -3 -43 -7 -24 -6 -23 -5 9 41
49 72 212 238 309 315 254 202 554 333 826 361 77 8 81 9 115 49 19 22 38 40
42 41 3 0 20 -18 38 -39z"/>
<path d="M6153 10510 c-110 -39 -176 -83 -282 -188 -57 -56 -101 -105 -98
-108 3 -3 51 -1 106 5 56 6 160 14 231 18 l130 6 0 144 c0 163 5 156 -87 123z"/>
<path d="M6300 10388 l0 -144 208 -12 c114 -7 217 -15 230 -19 36 -9 26 10
-44 86 -105 113 -252 207 -357 226 l-37 7 0 -144z"/>
<path d="M5904 10485 c-177 -52 -312 -116 -461 -216 -79 -54 -197 -149 -191
-155 2 -2 72 12 156 31 83 18 176 37 207 40 54 7 57 9 114 79 70 85 189 199
231 221 16 8 30 18 30 20 0 3 -1 5 -2 4 -2 0 -39 -11 -84 -24z"/>
<path d="M6550 10505 c0 -3 14 -12 31 -20 42 -22 169 -144 220 -213 24 -31 45
-60 49 -64 3 -4 66 -19 140 -33 74 -15 169 -35 212 -46 42 -10 79 -19 83 -19
14 0 -115 104 -205 164 -103 69 -228 135 -328 172 -71 27 -202 65 -202 59z"/>
<path d="M5900 10154 c-80 -8 -155 -16 -167 -19 -13 -3 -37 -28 -58 -60 -44
-69 -108 -196 -102 -202 3 -2 56 2 119 11 116 16 278 31 451 42 l97 6 0 119 0
119 -97 -1 c-54 -1 -163 -8 -243 -15z"/>
<path d="M6307 10163 c-11 -11 -8 -223 3 -223 17 0 406 176 424 191 11 10 -32
17 -174 29 -134 11 -244 13 -253 3z"/>
<path d="M6765 10064 c-80 -44 -192 -87 -287 -109 -43 -10 -78 -22 -78 -27 0
-4 33 -8 73 -8 64 0 359 -29 460 -46 l38 -6 -32 64 c-40 80 -96 168 -106 167
-5 -1 -35 -16 -68 -35z"/>
<path d="M5895 9783 c-16 -2 -102 -10 -189 -19 -303 -29 -642 -102 -1036 -221
-118 -36 -223 -67 -232 -70 -17 -5 -18 -53 -18 -827 0 -657 3 -849 15 -961 8
-77 15 -144 15 -148 0 -5 4 -6 8 -3 5 3 7 -9 5 -27 l-3 -32 11 28 c8 20 8 48
-2 105 -9 56 -13 317 -16 957 l-4 881 38 10 c21 6 92 28 158 49 441 137 802
214 1240 265 83 10 125 18 95 17 -30 0 -68 -2 -85 -4z"/>
<path d="M6605 9778 c567 -74 806 -123 1258 -257 110 -33 175 -47 188 -43 15
6 -20 20 -133 55 -437 134 -738 198 -1120 237 -197 20 -327 26 -193 8z"/>
<path d="M8114 9310 c0 -58 1 -81 3 -52 2 28 2 76 0 105 -2 28 -3 5 -3 -53z"/>
<path d="M5142 9248 c3 -20 10 -24 60 -29 70 -8 115 -33 139 -79 18 -33 19
-71 19 -735 0 -647 -1 -703 -18 -734 -26 -53 -60 -72 -136 -78 -61 -5 -66 -7
-66 -29 l0 -24 330 0 330 0 0 33 c0 44 -8 53 -55 61 -104 20 -105 22 -105 425
l0 329 75 7 c118 11 277 -9 362 -46 63 -27 166 -129 194 -192 19 -43 23 -69
24 -152 0 -88 -3 -107 -27 -157 -14 -31 -45 -77 -68 -102 l-42 -46 7 -65 c7
-73 10 -75 86 -52 77 24 161 70 215 120 99 90 139 193 132 337 -6 118 -42 195
-134 279 -78 71 -124 95 -223 116 -41 9 -76 17 -78 19 -2 2 25 13 59 26 89 32
139 63 193 121 72 78 90 125 90 244 0 93 -2 105 -33 167 -55 113 -154 185
-317 230 -76 21 -102 22 -548 26 l-469 3 4 -23z m788 -78 c187 -36 292 -160
293 -347 0 -73 -4 -90 -32 -147 -65 -133 -185 -186 -423 -186 -53 0 -103 3
-112 6 -14 5 -16 43 -16 314 0 170 4 320 9 334 7 16 20 26 38 29 57 8 192 7
243 -3z"/>
<path d="M7372 9190 c0 -14 2 -19 5 -12 2 6 2 18 0 25 -3 6 -5 1 -5 -13z"/>
<path d="M8112 9075 c0 -16 2 -22 5 -12 2 9 2 23 0 30 -3 6 -5 -1 -5 -18z"/>
<path d="M8114 8620 c0 -179 2 -252 3 -162 2 89 2 235 0 325 -1 89 -3 16 -3
-163z"/>
<path d="M7088 8913 c12 -2 30 -2 40 0 9 3 -1 5 -23 4 -22 0 -30 -2 -17 -4z"/>
<path d="M7638 8913 c6 -2 18 -2 25 0 6 3 1 5 -13 5 -14 0 -19 -2 -12 -5z"/>
<path d="M7128 8453 c6 -2 18 -2 25 0 6 3 1 5 -13 5 -14 0 -19 -2 -12 -5z"/>
<path d="M7293 8295 c0 -22 2 -30 4 -17 2 12 2 30 0 40 -3 9 -5 -1 -4 -23z"/>
<path d="M8113 8235 c0 -27 2 -38 4 -22 2 15 2 37 0 50 -2 12 -4 0 -4 -28z"/>
<path d="M6153 8055 c-3 -9 -3 -18 -1 -21 3 -3 8 4 11 16 6 23 -1 27 -10 5z"/>
<path d="M7288 8013 c6 -2 18 -2 25 0 6 3 1 5 -13 5 -14 0 -19 -2 -12 -5z"/>
<path d="M8112 7885 c0 -16 2 -22 5 -12 2 9 2 23 0 30 -3 6 -5 -1 -5 -18z"/>
<path d="M5851 7854 c0 -11 3 -14 6 -6 3 7 2 16 -1 19 -3 4 -6 -2 -5 -13z"/>
<path d="M8092 7640 c0 -14 2 -19 5 -12 2 6 2 18 0 25 -3 6 -5 1 -5 -13z"/>
<path d="M8102 7590 c0 -14 2 -19 5 -12 2 6 2 18 0 25 -3 6 -5 1 -5 -13z"/>
<path d="M8081 7564 c0 -11 3 -14 6 -6 3 7 2 16 -1 19 -3 4 -6 -2 -5 -13z"/>
<path d="M8072 7495 c0 -16 2 -22 5 -12 2 9 2 23 0 30 -3 6 -5 -1 -5 -18z"/>
<path d="M4477 7480 c-4 -14 -7 -32 -7 -40 0 -13 1 -13 11 0 7 11 8 6 4 -19
-5 -23 -4 -31 4 -27 7 5 11 -2 12 -16 0 -13 3 -18 5 -13 2 6 -2 40 -9 75 -11
53 -14 60 -20 40z"/>
<path d="M4508 7332 c-8 -29 44 -209 65 -225 8 -7 20 -21 27 -32 l12 -20 -7
20 c-40 115 -48 134 -57 129 -6 -4 -8 1 -4 12 3 11 -2 46 -12 79 -15 49 -19
56 -24 37z"/>
<path d="M6030 7146 c0 -2 8 -10 18 -17 15 -13 16 -12 3 4 -13 16 -21 21 -21
13z"/>
<path d="M6070 7106 c0 -2 8 -10 18 -17 15 -13 16 -12 3 4 -13 16 -21 21 -21
13z"/>
<path d="M7956 7093 c-6 -14 -5 -15 5 -6 7 7 10 15 7 18 -3 3 -9 -2 -12 -12z"/>
<path d="M6390 7086 c0 -2 8 -10 18 -17 15 -13 16 -12 3 4 -13 16 -21 21 -21
13z"/>
<path d="M4607 7038 c-7 -19 20 -81 33 -73 5 3 10 8 10 11 0 3 -5 2 -12 -2 -8
-5 -9 -2 -5 10 4 11 3 15 -4 10 -7 -4 -9 0 -5 12 7 24 -8 53 -17 32z"/>
<path d="M6878 6973 c7 -3 16 -2 19 1 4 3 -2 6 -13 5 -11 0 -14 -3 -6 -6z"/>
<path d="M6728 6963 c6 -2 18 -2 25 0 6 3 1 5 -13 5 -14 0 -19 -2 -12 -5z"/>
<path d="M7896 6954 c-8 -21 12 -26 23 -6 7 14 6 19 -4 19 -8 0 -16 -6 -19
-13z"/>
<path d="M6945 6925 c-25 -12 -26 -14 -5 -9 28 7 60 23 45 23 -5 0 -23 -6 -40
-14z"/>
<path d="M4676 6892 c-8 -13 29 -75 46 -78 12 -1 10 7 -9 42 -26 46 -29 49
-37 36z"/>
<path d="M5090 6895 c0 -4 28 -42 61 -84 l62 -78 93 -12 c319 -42 667 -202
877 -404 42 -40 77 -73 77 -71 0 16 -50 111 -85 159 -155 217 -465 397 -803
464 -106 22 -282 38 -282 26z"/>
<path d="M7310 6873 c-301 -45 -489 -111 -685 -241 -143 -94 -289 -262 -331
-377 -4 -11 26 12 67 51 210 202 587 366 920 399 l66 7 54 70 c80 105 80 98 2
97 -37 -1 -79 -3 -93 -6z"/>
<path d="M4766 6741 c-4 -5 -2 -12 3 -15 5 -4 12 -2 15 3 4 5 2 12 -3 15 -5 4
-12 2 -15 -3z"/>
<path d="M7759 6723 c-1 -5 -1 -11 0 -15 0 -5 -3 -8 -9 -8 -17 0 -32 -38 -18
-46 7 -4 10 -4 6 1 -5 5 1 14 11 22 11 7 19 22 18 33 -1 20 -6 27 -8 13z"/>
<path d="M4785 6710 c-3 -5 -5 -10 -3 -11 33 -8 38 -7 27 7 -14 17 -16 17 -24
4z"/>
<path d="M4806 6668 c3 -5 10 -6 15 -3 13 9 11 12 -6 12 -8 0 -12 -4 -9 -9z"/>
<path d="M4990 6642 c0 -4 30 -35 68 -69 l67 -60 205 -6 c168 -4 228 -10 330
-32 154 -32 274 -72 380 -125 44 -22 80 -38 80 -36 0 12 -159 109 -251 154
-187 91 -396 149 -618 172 -122 12 -261 13 -261 2z"/>
<path d="M7282 6619 c-267 -26 -565 -123 -759 -248 -46 -29 -83 -54 -83 -56 0
-2 46 17 102 42 200 88 432 133 711 139 l179 3 57 50 c97 85 98 81 -20 80 -57
-1 -141 -5 -187 -10z"/>
<path d="M7665 6583 l-17 -28 23 22 c12 12 20 25 17 28 -3 3 -13 -7 -23 -22z"/>
<path d="M4870 6591 c0 -6 4 -12 8 -15 5 -3 9 1 9 9 0 8 -4 15 -9 15 -4 0 -8
-4 -8 -9z"/>
<path d="M5130 6443 c-47 -2 -91 -5 -98 -8 -26 -9 192 -182 384 -303 127 -81
470 -273 699 -392 l160 -83 235 123 c290 152 448 240 610 340 167 104 402 281
389 294 -3 3 -79 8 -170 12 -337 13 -623 -37 -855 -152 -80 -39 -95 -51 -122
-94 -17 -27 -44 -56 -60 -64 -28 -14 -32 -14 -63 7 -18 12 -44 42 -58 66 -21
34 -42 52 -106 87 -98 53 -290 118 -410 139 -110 18 -309 35 -390 33 -33 -1
-98 -3 -145 -5z"/>
<path d="M3726 8113 c-6 -14 -5 -15 5 -6 7 7 10 15 7 18 -3 3 -9 -2 -12 -12z"/>
<path d="M3671 7964 c0 -11 3 -14 6 -6 3 7 2 16 -1 19 -3 4 -6 -2 -5 -13z"/>
<path d="M3663 7905 c0 -22 2 -30 4 -17 2 12 2 30 0 40 -3 9 -5 -1 -4 -23z"/>
<path d="M8883 7865 c0 -27 2 -38 4 -22 2 15 2 37 0 50 -2 12 -4 0 -4 -28z"/>
<path d="M8573 7633 c0 -16 1 -20 4 -9 4 16 9 14 35 -15 30 -34 30 -34 -2 9
-17 23 -33 42 -34 42 -1 0 -2 -12 -3 -27z"/>
<path d="M3480 7646 c0 -2 8 -10 18 -17 15 -13 16 -12 3 4 -13 16 -21 21 -21
13z"/>
<path d="M9051 7534 c0 -11 3 -14 6 -6 3 7 2 16 -1 19 -3 4 -6 -2 -5 -13z"/>
<path d="M9041 7484 c0 -11 3 -14 6 -6 3 7 2 16 -1 19 -3 4 -6 -2 -5 -13z"/>
<path d="M3501 7474 c0 -11 3 -14 6 -6 3 7 2 16 -1 19 -3 4 -6 -2 -5 -13z"/>
<path d="M3640 7460 c6 -11 13 -20 16 -20 2 0 0 9 -6 20 -6 11 -13 20 -16 20
-2 0 0 -9 6 -20z"/>
<path d="M3511 7434 c0 -11 3 -14 6 -6 3 7 2 16 -1 19 -3 4 -6 -2 -5 -13z"/>
<path d="M3520 7405 c0 -5 5 -17 10 -25 5 -8 10 -10 10 -5 0 6 -5 17 -10 25
-5 8 -10 11 -10 5z"/>
<path d="M8929 7258 l-43 -53 38 35 c35 32 63 70 52 70 -2 0 -23 -24 -47 -52z"/>
<path d="M3520 7124 c0 -10 3 -14 6 -11 4 3 15 2 25 -4 28 -14 23 -4 -6 15
-23 15 -25 15 -25 0z"/>
<path d="M8751 7114 c0 -11 3 -14 6 -6 3 7 2 16 -1 19 -3 4 -6 -2 -5 -13z"/>
<path d="M3531 7084 c0 -11 3 -14 6 -6 3 7 2 16 -1 19 -3 4 -6 -2 -5 -13z"/>
<path d="M3801 7064 c0 -11 3 -14 6 -6 3 7 2 16 -1 19 -3 4 -6 -2 -5 -13z"/>
<path d="M8736 7054 c-4 -14 -5 -28 -3 -31 3 -2 8 8 11 23 4 14 5 28 3 31 -3
2 -8 -8 -11 -23z"/>
<path d="M3811 7024 c0 -11 3 -14 6 -6 3 7 2 16 -1 19 -3 4 -6 -2 -5 -13z"/>
<path d="M8721 6994 c0 -11 3 -14 6 -6 3 7 2 16 -1 19 -3 4 -6 -2 -5 -13z"/>
<path d="M8623 6930 c0 -25 2 -35 4 -22 2 12 2 32 0 45 -2 12 -4 2 -4 -23z"/>
<path d="M3921 6864 c0 -11 3 -14 6 -6 3 7 2 16 -1 19 -3 4 -6 -2 -5 -13z"/>
<path d="M8880 6820 c-6 -11 -8 -20 -6 -20 3 0 10 9 16 20 6 11 8 20 6 20 -3
0 -10 -9 -16 -20z"/>
<path d="M4221 6690 c0 -8 4 -24 9 -35 5 -13 9 -14 9 -5 0 8 -4 24 -9 35 -5
13 -9 14 -9 5z"/>
<path d="M8572 6615 c-12 -25 -20 -45 -17 -45 7 0 47 81 43 86 -3 2 -14 -17
-26 -41z"/>
<path d="M8674 6524 c-18 -14 -18 -15 4 -4 12 6 22 13 22 15 0 8 -5 6 -26 -11z"/>
<path d="M3937 6478 c7 -8 11 -17 8 -19 -2 -3 5 -5 15 -5 25 0 25 0 -7 22 -20
13 -25 13 -16 2z"/>
<path d="M4130 6443 c0 -6 8 -17 18 -24 16 -13 16 -13 2 6 -8 11 -16 22 -17
24 -2 2 -3 0 -3 -6z"/>
<path d="M8764 6428 l-19 -23 23 19 c21 18 27 26 19 26 -2 0 -12 -10 -23 -22z"/>
<path d="M4060 6370 c11 -16 26 -33 32 -36 7 -4 -1 9 -16 29 -34 44 -46 50
-16 7z"/>
<path d="M4460 6351 c12 -24 13 -34 1 -26 -5 3 -12 2 -15 -3 -2 -4 6 -8 19 -8
22 0 23 1 9 28 -8 15 -17 28 -20 28 -2 0 0 -9 6 -19z"/>
<path d="M8060 6319 c-7 -11 -10 -23 -7 -25 2 -2 9 7 15 21 14 30 7 33 -8 4z"/>
<path d="M4010 6281 c0 -12 39 -25 47 -17 4 3 -1 6 -10 6 -9 0 -17 5 -17 10 0
6 -4 10 -10 10 -5 0 -10 -4 -10 -9z"/>
<path d="M8164 6256 c-3 -8 -4 -23 -2 -33 3 -11 6 -6 9 15 6 34 2 42 -7 18z"/>
<path d="M4078 6253 c7 -3 16 -2 19 1 4 3 -2 6 -13 5 -11 0 -14 -3 -6 -6z"/>
<path d="M4381 6224 c0 -11 3 -14 6 -6 3 7 2 16 -1 19 -3 4 -6 -2 -5 -13z"/>
<path d="M4250 6173 c13 -18 26 -30 29 -28 3 3 -8 18 -23 33 l-29 27 23 -32z"/>
<path d="M8270 6155 c-7 -9 -11 -17 -9 -20 3 -2 10 5 17 15 14 24 10 26 -8 5z"/>
<path d="M3930 6131 c0 -6 4 -13 10 -16 6 -3 7 1 4 9 -7 18 -14 21 -14 7z"/>
<path d="M4552 6085 c0 -16 2 -22 5 -12 2 9 2 23 0 30 -3 6 -5 -1 -5 -18z"/>
<path d="M7983 5990 c0 -41 2 -58 4 -37 2 20 2 54 0 75 -2 20 -4 3 -4 -38z"/>
<path d="M4552 6018 c-1 -20 -5 -45 -8 -55 -5 -14 -4 -15 5 -7 7 7 11 29 8 55
-3 42 -4 42 -5 7z"/>
<path d="M8509 6013 c-13 -16 -12 -17 4 -4 9 7 17 15 17 17 0 8 -8 3 -21 -13z"/>
<path d="M8087 5974 c-27 -26 -45 -49 -41 -53 4 -3 9 0 11 7 3 6 10 12 17 12
7 0 21 9 31 20 10 11 15 20 10 20 -4 0 -2 7 5 15 7 8 17 12 23 8 6 -3 7 -1 3
5 -9 15 -4 18 -59 -34z m23 2 c0 -2 -8 -10 -17 -17 -16 -13 -17 -12 -4 4 13
16 21 21 21 13z"/>
<path d="M4055 5990 c10 -11 20 -20 23 -20 3 0 -3 9 -13 20 -10 11 -20 20 -23
20 -3 0 3 -9 13 -20z"/>
<path d="M4423 5995 c0 -8 14 -27 31 -42 29 -26 29 -26 8 -2 -12 14 -20 28
-17 31 3 3 -1 10 -8 16 -10 9 -14 8 -14 -3z"/>
<path d="M4860 5961 c5 -11 15 -23 21 -27 6 -3 3 5 -6 20 -20 30 -30 35 -15 7z"/>
<path d="M8029 5963 c-13 -16 -12 -17 4 -4 16 13 21 21 13 21 -2 0 -10 -8 -17
-17z"/>
<path d="M4415 5950 c10 -11 20 -20 23 -20 3 0 -3 9 -13 20 -10 11 -20 20 -23
20 -3 0 3 -9 13 -20z"/>
<path d="M4525 5910 c10 -11 20 -20 23 -20 3 0 -3 9 -13 20 -10 11 -20 20 -23
20 -3 0 3 -9 13 -20z"/>
<path d="M4900 5900 c6 -11 13 -20 16 -20 2 0 0 9 -6 20 -6 11 -13 20 -16 20
-2 0 0 -9 6 -20z"/>
<path d="M7626 5873 c-6 -14 -5 -15 5 -6 7 7 10 15 7 18 -3 3 -9 -2 -12 -12z"/>
<path d="M4288 5873 c6 -2 18 -2 25 0 6 3 1 5 -13 5 -14 0 -19 -2 -12 -5z"/>
<path d="M8027 5868 c-7 -4 31 -7 83 -6 97 1 92 5 -13 10 -33 2 -64 0 -70 -4z"/>
<path d="M8223 5873 c9 -2 23 -2 30 0 6 3 -1 5 -18 5 -16 0 -22 -2 -12 -5z"/>
<path d="M4378 5863 c23 -2 59 -2 80 0 20 2 1 4 -43 4 -44 0 -61 -2 -37 -4z"/>
<path d="M4780 5820 c6 -11 13 -20 16 -20 2 0 0 9 -6 20 -6 11 -13 20 -16 20
-2 0 0 -9 6 -20z"/>
<path d="M5101 5790 c27 -56 27 -57 25 -27 0 14 -4 23 -8 20 -5 -2 -8 0 -8 4
0 5 -7 18 -15 29 -9 10 -6 -1 6 -26z"/>
<path d="M4675 5781 c-6 -11 53 -56 63 -47 3 4 -5 17 -17 29 -13 12 -20 16
-16 8 5 -9 3 -12 -6 -9 -8 3 -13 11 -11 17 3 13 -5 15 -13 2z"/>
<path d="M7426 5765 c-9 -26 -7 -32 5 -12 6 10 9 21 6 23 -2 3 -7 -2 -11 -11z"/>
<path d="M5345 5690 c21 -22 41 -40 44 -40 3 0 -13 18 -34 40 -21 22 -41 40
-44 40 -3 0 13 -18 34 -40z"/>
<path d="M7189 5683 l-34 -38 38 34 c34 33 42 41 34 41 -2 0 -19 -17 -38 -37z"/>
<path d="M4290 5704 c0 -1 8 -8 17 -15 9 -8 14 -9 10 -2 -4 7 0 13 10 16 10 3
6 4 -9 4 -16 -1 -28 -2 -28 -3z"/>
<path d="M5313 5685 c0 -8 4 -12 9 -9 5 3 6 10 3 15 -9 13 -12 11 -12 -6z"/>
<path d="M4404 5621 c4 -6 16 -16 28 -22 15 -8 18 -8 14 0 -4 6 -16 16 -28 22
-15 8 -18 8 -14 0z"/>
<path d="M7329 5613 c-13 -16 -12 -17 4 -4 16 13 21 21 13 21 -2 0 -10 -8 -17
-17z"/>
<path d="M8120 5615 c-11 -13 -10 -14 4 -9 9 3 16 10 16 15 0 13 -6 11 -20 -6z"/>
<path d="M5245 5570 c39 -40 63 -56 32 -22 -10 10 -14 22 -10 27 5 4 3 5 -4 1
-7 -4 -18 2 -25 14 -7 11 -17 20 -22 20 -6 0 8 -18 29 -40z"/>
<path d="M7289 5563 l-24 -28 28 24 c15 14 27 26 27 28 0 8 -8 1 -31 -24z"/>
<path d="M4918 5563 c7 -3 16 -2 19 1 4 3 -2 6 -13 5 -11 0 -14 -3 -6 -6z"/>
<path d="M7990 5555 c-19 -7 -28 -14 -20 -14 8 0 29 6 45 14 39 17 21 18 -25
0z"/>
<path d="M7480 5550 c-9 -6 -10 -10 -3 -10 6 0 15 5 18 10 8 12 4 12 -15 0z"/>
<path d="M4568 5543 c7 -3 16 -2 19 1 4 3 -2 6 -13 5 -11 0 -14 -3 -6 -6z"/>
<path d="M4838 5543 c7 -3 16 -2 19 1 4 3 -2 6 -13 5 -11 0 -14 -3 -6 -6z"/>
<path d="M7708 5543 c7 -3 16 -2 19 1 4 3 -2 6 -13 5 -11 0 -14 -3 -6 -6z"/>
<path d="M5136 5521 c-3 -5 0 -11 7 -14 8 -3 14 1 14 9 0 16 -13 19 -21 5z"/>
<path d="M5460 5521 c0 -6 4 -13 10 -16 6 -3 7 1 4 9 -7 18 -14 21 -14 7z"/>
<path d="M7060 5489 c-7 -11 -10 -23 -7 -25 2 -2 9 7 15 21 14 30 7 33 -8 4z"/>
<path d="M5038 5413 c7 -3 16 -2 19 1 4 3 -2 6 -13 5 -11 0 -14 -3 -6 -6z"/>
<path d="M5268 5413 c7 -3 16 -2 19 1 4 3 -2 6 -13 5 -11 0 -14 -3 -6 -6z"/>
<path d="M5308 5403 c7 -3 16 -2 19 1 4 3 -2 6 -13 5 -11 0 -14 -3 -6 -6z"/>
<path d="M4838 5373 c7 -3 16 -2 19 1 4 3 -2 6 -13 5 -11 0 -14 -3 -6 -6z"/>
<path d="M4798 5363 c7 -3 16 -2 19 1 4 3 -2 6 -13 5 -11 0 -14 -3 -6 -6z"/>
<path d="M5708 5343 c7 -3 16 -2 19 1 4 3 -2 6 -13 5 -11 0 -14 -3 -6 -6z"/>
<path d="M4820 5325 c14 -8 30 -14 35 -14 6 0 -1 6 -15 14 -14 8 -29 14 -35
14 -5 0 1 -6 15 -14z"/>
<path d="M6638 5283 c7 -3 16 -2 19 1 4 3 -2 6 -13 5 -11 0 -14 -3 -6 -6z"/>
<path d="M5940 5270 c8 -5 22 -9 30 -9 10 0 8 3 -5 9 -27 12 -43 12 -25 0z"/>
<path d="M5008 5263 c6 -2 18 -2 25 0 6 3 1 5 -13 5 -14 0 -19 -2 -12 -5z"/>
<path d="M5208 5263 c7 -3 16 -2 19 1 4 3 -2 6 -13 5 -11 0 -14 -3 -6 -6z"/>
<path d="M7570 4754 c-149 -39 -272 -138 -335 -267 -44 -94 -54 -141 -55 -258
0 -204 92 -363 261 -449 164 -84 397 -82 543 4 73 43 163 163 140 186 -8 8
-31 -9 -80 -58 -89 -89 -152 -116 -274 -116 -103 0 -176 26 -243 84 -93 82
-145 198 -154 346 -15 230 72 403 233 463 76 29 203 26 276 -6 73 -33 142
-104 174 -179 38 -85 59 -87 50 -3 -3 34 -6 104 -6 155 0 81 -2 94 -17 94 -9
0 -24 -7 -34 -16 -15 -14 -26 -13 -115 10 -114 30 -272 34 -364 10z"/>
<path d="M1536 4753 c-13 -13 -5 -21 28 -27 19 -4 45 -15 58 -25 l23 -19 3
-415 c3 -482 4 -479 -72 -498 -98 -24 -43 -30 262 -27 296 3 309 4 367 27 74
29 155 107 173 167 25 84 12 169 -35 232 -29 39 -113 88 -165 97 -48 8 -48 20
-2 35 129 43 190 210 119 326 -68 110 -166 135 -522 134 -127 -1 -234 -4 -237
-7z m475 -65 c88 -29 132 -95 132 -193 0 -68 -17 -110 -63 -149 -43 -36 -92
-48 -180 -44 l-75 3 0 188 c0 156 3 189 15 197 21 13 130 12 171 -2z m61 -480
c31 -15 66 -40 81 -59 73 -97 52 -252 -42 -314 -46 -31 -141 -50 -202 -41 -59
9 -69 16 -80 62 -10 44 -11 369 -1 379 4 4 48 5 98 3 69 -4 104 -11 146 -30z"/>
<path d="M4404 4666 c-95 -22 -172 -64 -242 -133 -78 -77 -120 -162 -135 -275
-34 -252 111 -465 354 -523 126 -29 321 -14 455 36 l52 20 3 153 c4 168 12
191 67 198 14 2 27 9 30 16 3 9 -37 12 -177 12 -100 0 -181 -4 -181 -8 0 -5
18 -14 40 -21 22 -6 44 -20 50 -31 5 -10 10 -81 10 -158 l0 -139 -27 -13 c-16
-7 -69 -15 -119 -18 -84 -4 -97 -2 -153 23 -144 65 -225 221 -224 430 2 152
55 271 150 334 65 43 107 54 199 49 135 -6 248 -78 288 -183 10 -25 24 -45 31
-45 10 0 12 26 8 128 -3 70 -7 129 -9 131 -2 2 -14 -1 -27 -8 -19 -10 -38 -9
-108 10 -105 27 -252 34 -335 15z"/>
<path d="M8633 4666 c-243 -56 -402 -296 -364 -547 29 -188 153 -328 340 -383
72 -21 221 -21 292 0 229 68 368 275 345 516 -17 189 -131 339 -303 399 -76
27 -226 34 -310 15z m199 -58 c89 -26 178 -142 214 -275 20 -78 20 -260 -2
-333 -34 -118 -97 -189 -190 -216 -178 -51 -330 64 -390 295 -23 94 -16 275
15 355 58 148 203 219 353 174z"/>
<path d="M2550 4646 c0 -10 9 -16 24 -16 13 0 34 -9 47 -19 l24 -19 0 -390 c0
-369 -1 -391 -19 -411 -11 -12 -29 -21 -41 -21 -13 0 -28 -7 -35 -15 -11 -13
10 -15 179 -15 115 0 191 4 191 10 0 5 -15 12 -34 16 -66 12 -71 26 -74 215
l-3 169 51 0 51 0 77 -121 c184 -288 196 -300 322 -298 41 1 89 4 105 8 l30 7
-55 29 c-59 32 -93 73 -243 292 l-77 112 66 31 c199 95 189 348 -17 427 -36
14 -90 17 -306 21 -235 3 -263 2 -263 -12z m459 -70 c66 -32 94 -89 89 -182
-4 -85 -32 -134 -93 -163 -49 -24 -122 -35 -164 -26 l-31 7 0 181 c0 100 4
187 8 193 18 29 124 24 191 -10z"/>
<path d="M3530 4645 c0 -9 9 -15 24 -15 13 0 34 -9 47 -19 l24 -19 3 -384 c3
-372 2 -385 -17 -410 -11 -14 -34 -28 -51 -31 -16 -4 -30 -11 -30 -17 0 -6 66
-10 186 -10 142 0 185 3 182 12 -3 7 -20 16 -38 19 -19 4 -40 15 -46 24 -21
28 -26 127 -22 463 l3 324 28 24 c15 13 39 24 53 24 15 0 24 6 24 15 0 13 -27
15 -185 15 -158 0 -185 -2 -185 -15z"/>
<path d="M5102 4648 c3 -7 22 -17 42 -22 66 -15 68 -25 64 -445 -3 -407 -1
-392 -69 -413 -22 -6 -39 -15 -39 -20 0 -4 87 -8 193 -8 171 1 190 2 173 15
-11 8 -27 15 -36 15 -9 0 -25 9 -36 21 -17 19 -19 41 -22 205 l-4 184 227 0
227 0 -4 -184 c-3 -206 -7 -218 -74 -230 -19 -4 -34 -11 -34 -16 0 -6 76 -10
190 -10 105 0 190 4 190 8 0 5 -17 14 -39 20 -69 21 -66 4 -66 433 0 430 -3
414 66 428 18 3 34 12 37 19 3 9 -41 12 -187 12 -155 0 -191 -3 -191 -14 0 -8
16 -16 41 -20 60 -10 69 -39 69 -226 l0 -150 -226 0 -226 0 4 170 c3 187 6
196 67 209 18 3 32 11 32 16 -1 6 -72 11 -187 13 -145 2 -185 0 -182 -10z"/>
<path d="M6230 4549 c0 -82 3 -110 12 -107 7 3 16 19 21 37 22 88 62 111 195
114 l97 2 0 -375 c0 -206 -3 -388 -8 -403 -8 -28 -27 -40 -79 -51 -16 -4 -28
-11 -28 -16 0 -6 74 -10 195 -10 110 0 195 4 195 9 0 5 -19 15 -42 23 -27 8
-47 22 -55 38 -10 19 -12 115 -10 405 l2 380 30 3 c17 2 63 1 102 -3 95 -9
132 -33 154 -100 27 -87 40 -69 37 52 l-3 108 -407 3 -408 2 0 -111z"/>
<path d="M9320 4646 c0 -10 9 -16 24 -16 13 0 35 -9 50 -21 l26 -20 0 -385 c0
-242 -4 -392 -10 -404 -6 -11 -28 -24 -50 -30 -81 -22 -40 -30 145 -30 102 0
185 4 185 8 0 5 -18 14 -40 21 -28 8 -44 20 -50 37 -6 14 -10 97 -10 185 l0
159 48 0 47 0 74 -118 c132 -208 179 -269 222 -286 55 -22 229 -20 229 3 0 3
-22 16 -49 28 -33 16 -61 40 -89 75 -49 65 -222 319 -222 327 0 3 25 17 56 30
158 69 195 274 68 379 -72 60 -102 65 -391 70 -235 3 -263 2 -263 -12z m457
-66 c74 -33 113 -124 94 -218 -21 -105 -82 -152 -204 -155 l-72 -2 -3 185 c-1
101 0 190 2 197 8 21 133 16 183 -7z"/>
<path d="M10292 4648 c3 -7 18 -16 34 -20 17 -4 39 -17 50 -29 18 -20 19 -40
19 -398 0 -285 -3 -381 -13 -398 -7 -13 -29 -27 -52 -33 -91 -24 -34 -30 304
-30 l343 0 21 107 c12 58 20 108 18 111 -9 8 -27 -10 -45 -46 -46 -89 -99
-112 -258 -112 -65 0 -125 5 -133 10 -12 7 -16 43 -18 190 l-3 180 101 0 c124
0 154 -12 171 -70 23 -75 34 -40 34 105 0 147 -10 176 -35 103 -20 -57 -46
-68 -167 -71 l-98 -2 0 175 0 175 100 3 c55 2 119 0 142 -3 55 -8 99 -46 114
-96 20 -64 33 -40 35 64 l1 97 -334 0 c-257 0 -334 -3 -331 -12z"/>
<path d="M6933 3333 c9 -2 25 -2 35 0 9 3 1 5 -18 5 -19 0 -27 -2 -17 -5z"/>
<path d="M4658 3323 c6 -2 18 -2 25 0 6 3 1 5 -13 5 -14 0 -19 -2 -12 -5z"/>
<path d="M7913 3323 c15 -2 39 -2 55 0 15 2 2 4 -28 4 -30 0 -43 -2 -27 -4z"/>
<path d="M8440 3326 c7 -6 119 -11 125 -4 3 2 -25 6 -62 7 -37 1 -65 0 -63 -3z"/>
<path d="M5572 3235 c0 -16 2 -22 5 -12 2 9 2 23 0 30 -3 6 -5 -1 -5 -18z"/>
<path d="M9080 3239 c-7 -11 -10 -23 -7 -25 2 -2 9 7 15 21 14 30 7 33 -8 4z"/>
<path d="M4761 3217 c-13 -21 -12 -21 5 -5 10 10 16 20 13 22 -3 3 -11 -5 -18
-17z"/>
<path d="M6811 3194 c0 -11 3 -14 6 -6 3 7 2 16 -1 19 -3 4 -6 -2 -5 -13z"/>
<path d="M9585 3184 c-9 -14 -14 -28 -12 -31 3 -3 13 9 22 26 19 38 14 41 -10
5z"/>
<path d="M4658 3173 c6 -2 18 -2 25 0 6 3 1 5 -13 5 -14 0 -19 -2 -12 -5z"/>
<path d="M8453 3173 c15 -2 37 -2 50 0 12 2 0 4 -28 4 -27 0 -38 -2 -22 -4z"/>
<path d="M1663 3163 c15 -2 37 -2 50 0 12 2 0 4 -28 4 -27 0 -38 -2 -22 -4z"/>
<path d="M1866 3159 c61 -4 133 -4 160 0 36 6 6 9 -111 8 l-160 0 111 -8z"/>
<path d="M2433 3163 c9 -2 25 -2 35 0 9 3 1 5 -18 5 -19 0 -27 -2 -17 -5z"/>
<path d="M2498 3163 c7 -3 16 -2 19 1 4 3 -2 6 -13 5 -11 0 -14 -3 -6 -6z"/>
<path d="M5086 3153 c-6 -14 -5 -15 5 -6 7 7 10 15 7 18 -3 3 -9 -2 -12 -12z"/>
<path d="M6811 3154 c0 -11 3 -14 6 -6 3 7 2 16 -1 19 -3 4 -6 -2 -5 -13z"/>
<path d="M7510 3165 c0 -5 5 -17 10 -25 5 -8 10 -10 10 -5 0 6 -5 17 -10 25
-5 8 -10 11 -10 5z"/>
<path d="M10598 3163 c23 -2 61 -2 85 0 23 2 4 4 -43 4 -47 0 -66 -2 -42 -4z"/>
<path d="M3553 3085 c0 -27 2 -38 4 -22 2 15 2 37 0 50 -2 12 -4 0 -4 -28z"/>
<path d="M5118 3113 c18 -2 45 -2 60 0 15 2 0 4 -33 4 -33 0 -45 -2 -27 -4z"/>
<path d="M6368 3113 c17 -2 47 -2 65 0 17 2 3 4 -33 4 -36 0 -50 -2 -32 -4z"/>
<path d="M7398 3113 c18 -2 45 -2 60 0 15 2 0 4 -33 4 -33 0 -45 -2 -27 -4z"/>
<path d="M7336 3095 c-9 -26 -7 -32 5 -12 6 10 9 21 6 23 -2 3 -7 -2 -11 -11z"/>
<path d="M9016 3093 c-6 -14 -5 -15 5 -6 7 7 10 15 7 18 -3 3 -9 -2 -12 -12z"/>
<path d="M5056 3085 c-9 -26 -7 -32 5 -12 6 10 9 21 6 23 -2 3 -7 -2 -11 -11z"/>
<path d="M8833 3065 c0 -22 2 -30 4 -17 2 12 2 30 0 40 -3 9 -5 -1 -4 -23z"/>
<path d="M3996 3067 c3 -10 9 -15 12 -12 3 3 0 11 -7 18 -10 9 -11 8 -5 -6z"/>
<path d="M8094 3058 l-19 -23 23 19 c12 11 22 21 22 23 0 8 -8 2 -26 -19z"/>
<path d="M9531 3044 c0 -11 3 -14 6 -6 3 7 2 16 -1 19 -3 4 -6 -2 -5 -13z"/>
<path d="M3205 3010 c-13 -6 -15 -9 -5 -9 8 0 22 4 30 9 18 12 2 12 -25 0z"/>
<path d="M5245 3010 c-3 -5 -1 -10 4 -10 6 0 11 5 11 10 0 6 -2 10 -4 10 -3 0
-8 -4 -11 -10z"/>
<path d="M5705 3010 l-40 -7 37 -2 c20 0 40 4 43 9 3 6 5 9 3 9 -2 -1 -21 -5
-43 -9z"/>
<path d="M7960 3010 l-45 -7 40 -1 c22 -1 47 3 55 8 8 5 11 9 5 8 -5 0 -30 -4
-55 -8z"/>
<path d="M3108 3003 c7 -3 16 -2 19 1 4 3 -2 6 -13 5 -11 0 -14 -3 -6 -6z"/>
<path d="M4653 3003 c9 -2 25 -2 35 0 9 3 1 5 -18 5 -19 0 -27 -2 -17 -5z"/>
<path d="M6938 3003 c12 -2 32 -2 45 0 12 2 2 4 -23 4 -25 0 -35 -2 -22 -4z"/>
<path d="M7523 3003 c9 -2 23 -2 30 0 6 3 -1 5 -18 5 -16 0 -22 -2 -12 -5z"/>
<path d="M8368 3003 c6 -2 18 -2 25 0 6 3 1 5 -13 5 -14 0 -19 -2 -12 -5z"/>
<path d="M8478 3003 c12 -2 32 -2 45 0 12 2 2 4 -23 4 -25 0 -35 -2 -22 -4z"/>
<path d="M3148 2993 c7 -3 16 -2 19 1 4 3 -2 6 -13 5 -11 0 -14 -3 -6 -6z"/>
<path d="M4195 2601 c-34 -14 -57 -48 -58 -85 -2 -61 55 -103 124 -91 34 6 37
9 41 46 3 38 3 39 -27 38 -16 0 -24 -3 -17 -6 6 -2 12 -18 12 -34 0 -26 -4
-29 -30 -29 -42 0 -70 31 -70 78 0 46 24 72 65 72 16 0 37 -7 47 -17 17 -15
18 -15 18 4 0 28 -61 42 -105 24z"/>
<path d="M5164 2600 c-48 -20 -71 -102 -40 -142 19 -26 65 -40 107 -33 34 6
37 9 41 46 3 38 3 39 -27 38 -16 0 -24 -3 -17 -6 6 -2 12 -18 12 -34 0 -26 -3
-29 -34 -29 -43 0 -66 29 -66 81 0 61 56 89 108 53 19 -13 22 -13 22 0 0 8 -3
17 -8 20 -17 10 -79 15 -98 6z"/>
<path d="M7742 2594 c-33 -23 -25 -53 23 -85 22 -15 40 -35 40 -46 0 -25 -41
-29 -66 -7 -18 16 -19 16 -19 -4 0 -16 8 -23 34 -27 47 -9 76 8 76 45 0 24 -8
35 -40 56 -45 30 -54 64 -17 64 13 0 28 -5 35 -12 6 -6 15 -9 19 -5 9 10 -7
24 -37 32 -16 3 -34 0 -48 -11z"/>
<path d="M8194 2596 c-68 -30 -69 -124 -2 -161 29 -15 43 -17 74 -10 35 9 39
14 45 48 6 36 5 37 -25 37 -21 0 -27 -3 -18 -9 8 -4 12 -19 10 -32 -4 -30 -51
-39 -78 -14 -36 33 -34 102 4 127 19 13 64 9 80 -8 15 -14 16 -14 16 4 0 14
-9 21 -31 26 -40 8 -38 8 -75 -8z"/>
<path d="M8633 2595 c-39 -17 -61 -74 -44 -117 14 -36 64 -62 106 -54 81 16
102 124 32 166 -38 23 -51 24 -94 5z m73 -13 c34 -22 41 -94 13 -129 -20 -23
-67 -16 -86 13 -22 34 -20 94 3 111 20 14 53 17 70 5z"/>
<path d="M2715 2513 l0 -88 55 3 c30 2 61 9 68 14 17 15 15 55 -4 66 -14 8
-14 12 -3 31 23 35 1 55 -62 59 l-54 3 0 -88z m85 62 c18 -21 5 -45 -25 -45
-21 0 -25 5 -25 30 0 23 5 30 19 30 10 0 24 -7 31 -15z m4 -71 c35 -14 11 -64
-31 -64 -20 0 -23 5 -23 35 0 36 15 44 54 29z"/>
<path d="M2940 2528 c3 -40 9 -78 13 -85 14 -21 75 -27 101 -9 22 14 25 24 28
91 3 70 2 75 -17 74 -11 0 -14 -3 -7 -6 18 -7 16 -104 -4 -131 -18 -26 -46
-28 -69 -5 -13 12 -16 31 -13 80 3 57 1 63 -17 63 -19 0 -20 -5 -15 -72z"/>
<path d="M3175 2512 c0 -83 1 -88 20 -84 18 3 20 11 20 88 0 77 -2 84 -20 84
-18 0 -20 -7 -20 -88z"/>
<path d="M3315 2512 l0 -87 59 5 c35 3 61 10 64 18 4 14 -14 16 -23 2 -3 -5
-20 -10 -36 -10 l-31 0 4 80 c3 74 2 80 -17 80 -18 0 -20 -7 -20 -88z"/>
<path d="M3515 2512 l0 -87 35 1 c73 2 82 5 105 29 18 17 25 35 25 64 0 56
-33 81 -109 81 l-56 0 0 -88z m115 58 c45 -45 13 -130 -50 -130 l-30 0 0 75 0
75 30 0 c17 0 39 -9 50 -20z"/>
<path d="M3765 2516 c0 -77 2 -85 20 -88 19 -4 20 1 20 84 0 81 -2 88 -20 88
-18 0 -20 -7 -20 -84z"/>
<path d="M3895 2512 c0 -72 3 -88 15 -88 13 0 15 12 12 63 -3 42 -1 63 7 63 6
0 11 -3 11 -7 1 -5 25 -35 55 -68 l53 -60 4 93 c2 77 0 92 -12 92 -12 0 -14
-12 -12 -57 l3 -58 -55 58 c-30 31 -61 57 -68 57 -10 0 -13 -23 -13 -88z"/>
<path d="M4528 2583 c10 -20 7 -137 -4 -155 -13 -20 118 -3 133 18 18 25 16
41 -6 61 -17 14 -17 18 -5 30 33 34 0 63 -72 63 -49 0 -54 -2 -46 -17z m91
-11 c15 -29 -5 -47 -46 -43 -7 0 -13 14 -13 31 0 25 4 30 25 30 13 0 29 -8 34
-18z m12 -78 c19 -23 -1 -49 -37 -49 -25 0 -29 4 -32 33 -3 30 -1 32 26 32 16
0 35 -7 43 -16z"/>
<path d="M4755 2516 c0 -78 2 -85 21 -89 20 -3 21 0 17 35 -5 31 -2 38 11 38
9 0 16 -3 16 -7 0 -17 46 -62 70 -69 24 -7 23 -6 -8 30 -36 42 -38 49 -17 66
18 15 20 51 3 68 -7 7 -35 12 -62 12 l-51 0 0 -84z m88 53 c15 -24 1 -49 -28
-49 -22 0 -25 4 -25 36 0 31 3 35 21 32 12 -2 27 -10 32 -19z"/>
<path d="M4985 2511 c0 -82 2 -89 20 -89 18 0 20 7 20 89 0 82 -2 89 -20 89
-18 0 -20 -7 -20 -89z"/>
<path d="M5365 2512 c0 -82 1 -87 21 -87 19 0 20 4 16 43 l-5 42 48 0 48 0 -5
-42 c-4 -39 -3 -43 16 -43 20 0 21 5 21 87 0 82 -1 88 -20 88 -18 0 -20 -5
-17 -35 l4 -35 -47 0 -47 0 4 35 c3 30 1 35 -17 35 -19 0 -20 -6 -20 -88z"/>
<path d="M5600 2585 c0 -12 4 -13 19 -4 33 21 46 6 49 -59 2 -34 -1 -69 -6
-79 -9 -15 -6 -18 18 -18 23 0 26 3 19 17 -5 9 -9 44 -9 78 0 66 15 84 51 61
15 -9 19 -8 19 4 0 12 -15 15 -80 15 -65 0 -80 -3 -80 -15z"/>
<path d="M5835 2516 l0 -84 43 -6 c44 -6 82 6 82 25 0 6 -7 6 -19 -1 -11 -5
-31 -10 -45 -10 -23 0 -26 4 -26 36 0 35 1 36 30 32 21 -3 30 0 30 10 0 10 -9
13 -30 10 -28 -4 -30 -3 -30 29 0 30 3 33 28 33 15 0 33 -5 40 -12 9 -9 12 -8
12 5 0 14 -10 17 -57 17 l-58 0 0 -84z"/>
<path d="M6045 2516 c0 -78 2 -85 21 -89 20 -3 21 0 17 35 -7 48 14 52 39 8
10 -17 28 -34 40 -39 25 -9 39 -5 22 7 -5 4 -20 21 -31 38 -21 30 -21 30 -2
42 10 7 19 21 19 31 0 33 -28 51 -78 51 l-47 0 0 -84z m85 59 c18 -22 3 -55
-26 -55 -21 0 -24 5 -24 35 0 28 4 35 19 35 10 0 24 -7 31 -15z"/>
<path d="M6405 2516 c0 -77 2 -85 20 -88 18 -4 20 0 16 40 l-3 45 31 -5 c21
-3 31 0 31 8 0 10 -9 12 -30 8 -25 -6 -30 -3 -35 19 -4 14 -4 31 0 36 9 15 58
14 73 -1 9 -9 12 -8 12 5 0 14 -10 17 -57 17 l-58 0 0 -84z"/>
<path d="M6598 2593 c8 -3 12 -28 12 -73 0 -60 3 -71 22 -84 31 -22 71 -20 94
5 26 28 37 159 14 159 -12 0 -14 -12 -12 -65 3 -43 -1 -71 -9 -81 -18 -22 -61
-13 -76 16 -17 33 -17 117 0 123 6 3 -4 5 -23 5 -19 0 -29 -2 -22 -5z"/>
<path d="M6827 2593 c-15 -14 -6 -23 12 -12 10 7 26 9 35 6 15 -6 17 -19 14
-82 -2 -62 0 -75 12 -75 12 0 15 15 15 77 l0 78 33 -1 c17 -1 32 2 32 7 0 10
-143 12 -153 2z"/>
<path d="M7048 2593 c8 -3 12 -28 12 -73 0 -60 3 -71 22 -84 30 -21 61 -20 89
3 20 16 25 31 29 90 4 59 3 71 -10 71 -12 0 -14 -12 -12 -63 3 -49 0 -68 -13
-80 -45 -45 -89 1 -83 88 3 53 2 55 -22 54 -14 0 -19 -3 -12 -6z"/>
<path d="M7295 2512 c0 -82 1 -87 21 -88 20 -2 21 2 17 37 -7 49 7 50 42 5 25
-32 65 -54 65 -35 0 5 -4 9 -9 9 -5 0 -18 15 -29 34 -19 33 -19 34 -1 50 42
35 10 76 -59 76 l-47 0 0 -88z m85 63 c18 -22 3 -55 -26 -55 -21 0 -24 5 -24
35 0 28 4 35 19 35 10 0 24 -7 31 -15z"/>
<path d="M7518 2588 c14 -14 16 -122 3 -146 -8 -15 -3 -17 55 -14 49 3 64 7
64 19 0 12 -3 13 -14 4 -8 -7 -27 -11 -43 -9 -24 3 -28 8 -31 37 -3 33 -3 33
32 29 25 -3 36 0 36 9 0 8 -13 13 -36 13 -33 0 -35 2 -32 28 2 21 9 28 31 30
16 2 35 -2 43 -9 11 -9 14 -8 14 5 0 13 -12 16 -67 16 -52 0 -64 -3 -55 -12z"/>
<path d="M8397 2588 c11 -14 10 -138 0 -155 -4 -7 15 -9 54 -8 38 2 65 8 70
16 11 19 2 24 -15 10 -8 -7 -27 -11 -43 -9 l-28 3 1 78 c0 75 0 77 -24 77 -18
0 -22 -3 -15 -12z"/>
<path d="M8855 2512 l0 -87 55 2 c72 4 102 39 65 77 -12 12 -14 20 -5 36 8 14
8 26 0 40 -9 16 -21 20 -63 20 l-52 0 0 -88z m84 64 c18 -22 2 -46 -30 -46
-24 0 -29 4 -29 23 0 13 3 27 7 30 11 12 40 8 52 -7z m10 -84 c13 -24 -4 -52
-33 -52 -24 0 -36 17 -36 51 0 26 55 27 69 1z"/>
<path d="M9115 2568 c-14 -34 -57 -129 -62 -138 -2 -3 6 -6 17 -6 11 0 19 5
19 11 -4 38 2 45 41 45 34 0 41 -4 46 -24 3 -13 15 -26 25 -29 11 -3 19 -2 17
2 -29 74 -75 171 -81 171 -4 0 -14 -15 -22 -32z m29 -34 c10 -26 7 -34 -15
-34 -15 0 -19 4 -15 16 3 9 6 20 6 25 0 15 17 10 24 -7z"/>
<path d="M9305 2512 l0 -87 54 3 c30 1 58 8 62 14 11 17 1 24 -13 10 -7 -7
-25 -12 -40 -12 -25 0 -28 4 -30 38 -1 20 -2 48 -3 62 -1 14 2 33 7 43 7 14 4
17 -14 17 -22 0 -23 -3 -23 -88z"/>
<path d="M9505 2512 l0 -87 60 1 c51 1 61 4 63 20 3 15 1 17 -9 7 -7 -7 -28
-13 -47 -13 l-34 0 4 80 c3 74 2 80 -17 80 -18 0 -20 -7 -20 -88z"/>
<path d="M9707 2548 c26 -39 34 -60 31 -85 -3 -24 0 -33 14 -36 15 -4 18 2 18
40 0 33 8 56 30 89 28 42 29 44 8 44 -12 0 -18 -3 -15 -6 9 -9 -25 -65 -37
-61 -5 2 -17 18 -25 35 -11 21 -23 32 -38 32 -21 0 -20 -3 14 -52z"/>
<path d="M1560 2531 c0 -18 73 -21 476 -21 361 0 414 2 414 15 0 13 -56 15
-445 15 -248 0 -445 -4 -445 -9z"/>
<path d="M10090 2526 c0 -12 71 -14 450 -14 382 0 450 2 450 14 0 12 -69 14
-450 14 -379 0 -450 -2 -450 -14z"/>
<path d="M7913 2427 c2 -28 5 -33 15 -24 15 12 12 49 -5 54 -8 3 -11 -8 -10
-30z"/>
</g>
</svg>
